<mxfile host="Electron" modified="2024-09-06T12:00:00.271Z" agent="Mozilla/5.0 (Windows NT 10.0; Win64; x64) AppleWebKit/537.36 (KHTML, like Gecko) draw.io/21.3.7 Chrome/112.0.5615.204 Electron/24.5.0 Safari/537.36" etag="dcl6V8nHedgqL8nUpWK3" version="21.3.7" type="device">
  <diagram id="W17T6F8bTOY21CXLA5_a" name="Page-1">
    <mxGraphModel dx="978" dy="670" grid="0" gridSize="10" guides="1" tooltips="1" connect="1" arrows="1" fold="1" page="1" pageScale="1" pageWidth="827" pageHeight="583" math="0" shadow="0">
      <root>
        <mxCell id="0" />
        <mxCell id="1" parent="0" />
        <mxCell id="Pijx6tLUIFeuxo3mq-_r-9" value="" style="edgeStyle=orthogonalEdgeStyle;rounded=0;orthogonalLoop=1;jettySize=auto;html=1;strokeWidth=2;strokeColor=#FF0000;fontSize=16;endArrow=classic;endFill=1;" parent="1" source="Pijx6tLUIFeuxo3mq-_r-1" edge="1">
          <mxGeometry relative="1" as="geometry">
            <mxPoint x="424" y="199" as="targetPoint" />
            <Array as="points">
              <mxPoint x="620" y="199" />
              <mxPoint x="440" y="199" />
            </Array>
          </mxGeometry>
        </mxCell>
        <mxCell id="Pijx6tLUIFeuxo3mq-_r-1" value="" style="shape=mxgraph.pid.compressors_-_iso.compressor,_vacuum_pump;html=1;pointerEvents=1;align=center;verticalLabelPosition=bottom;verticalAlign=top;dashed=0;rotation=-90;fontSize=16;" parent="1" vertex="1">
          <mxGeometry x="590" y="255" width="60" height="60" as="geometry" />
        </mxCell>
        <mxCell id="Pijx6tLUIFeuxo3mq-_r-15" value="" style="edgeStyle=orthogonalEdgeStyle;rounded=0;orthogonalLoop=1;jettySize=auto;html=1;entryX=0;entryY=0.5;entryDx=0;entryDy=0;entryPerimeter=0;strokeWidth=2;strokeColor=#007FFF;fontSize=16;" parent="1" source="Pijx6tLUIFeuxo3mq-_r-2" target="Pijx6tLUIFeuxo3mq-_r-1" edge="1">
          <mxGeometry relative="1" as="geometry">
            <mxPoint x="520" y="445" as="targetPoint" />
          </mxGeometry>
        </mxCell>
        <mxCell id="Pijx6tLUIFeuxo3mq-_r-2" value="" style="shape=mxgraph.pid.heat_exchangers.shell_and_tube_heat_exchanger_2;html=1;pointerEvents=1;align=center;verticalLabelPosition=bottom;verticalAlign=top;dashed=0;rotation=-90;fontSize=16;" parent="1" vertex="1">
          <mxGeometry x="367.67" y="348" width="52" height="52" as="geometry" />
        </mxCell>
        <mxCell id="Pijx6tLUIFeuxo3mq-_r-4" value="" style="verticalLabelPosition=bottom;align=center;html=1;verticalAlign=top;pointerEvents=1;dashed=0;shape=mxgraph.pid2valves.valve;valveType=gate;rotation=90;fontSize=16;" parent="1" vertex="1">
          <mxGeometry x="137" y="277" width="50" height="30" as="geometry" />
        </mxCell>
        <mxCell id="Pijx6tLUIFeuxo3mq-_r-11" value="" style="edgeStyle=orthogonalEdgeStyle;rounded=0;orthogonalLoop=1;jettySize=auto;html=1;strokeWidth=2;strokeColor=#FF6666;fontSize=16;" parent="1" source="Pijx6tLUIFeuxo3mq-_r-5" target="Pijx6tLUIFeuxo3mq-_r-4" edge="1">
          <mxGeometry relative="1" as="geometry">
            <mxPoint x="254" y="115" as="targetPoint" />
          </mxGeometry>
        </mxCell>
        <mxCell id="Pijx6tLUIFeuxo3mq-_r-5" value="" style="shape=mxgraph.pid.heat_exchangers.shell_and_tube_heat_exchanger_2;html=1;pointerEvents=1;align=center;verticalLabelPosition=bottom;verticalAlign=top;dashed=0;rotation=90;fontSize=16;" parent="1" vertex="1">
          <mxGeometry x="370" y="172" width="53" height="53" as="geometry" />
        </mxCell>
        <mxCell id="Pijx6tLUIFeuxo3mq-_r-17" value="Compressor" style="text;html=1;strokeColor=none;fillColor=none;align=center;verticalAlign=middle;whiteSpace=wrap;rounded=0;fontSize=16;" parent="1" vertex="1">
          <mxGeometry x="510" y="275" width="40" height="20" as="geometry" />
        </mxCell>
        <mxCell id="Pijx6tLUIFeuxo3mq-_r-18" value="Expansion Valve" style="text;html=1;align=center;verticalAlign=middle;resizable=0;points=[];autosize=1;fontSize=16;" parent="1" vertex="1">
          <mxGeometry x="187" y="270" width="140" height="30" as="geometry" />
        </mxCell>
        <mxCell id="Pijx6tLUIFeuxo3mq-_r-19" value="Condenser" style="text;html=1;align=center;verticalAlign=middle;resizable=0;points=[];autosize=1;fontSize=16;" parent="1" vertex="1">
          <mxGeometry x="350" y="225" width="100" height="30" as="geometry" />
        </mxCell>
        <mxCell id="Pijx6tLUIFeuxo3mq-_r-21" value="Evaporator" style="text;html=1;align=center;verticalAlign=middle;resizable=0;points=[];autosize=1;fontSize=16;" parent="1" vertex="1">
          <mxGeometry x="343" y="318" width="100" height="30" as="geometry" />
        </mxCell>
        <mxCell id="Pijx6tLUIFeuxo3mq-_r-26" value="" style="endArrow=none;html=1;strokeWidth=2;fontSize=16;strokeColor=#0000FF;" parent="1" edge="1">
          <mxGeometry width="50" height="50" relative="1" as="geometry">
            <mxPoint x="376" y="440" as="sourcePoint" />
            <mxPoint x="376" y="361" as="targetPoint" />
          </mxGeometry>
        </mxCell>
        <mxCell id="Pijx6tLUIFeuxo3mq-_r-31" value="" style="endArrow=none;html=1;strokeWidth=2;fontSize=16;exitX=0.758;exitY=0.835;exitDx=0;exitDy=0;exitPerimeter=0;strokeColor=#FF6666;" parent="1" source="Pijx6tLUIFeuxo3mq-_r-5" edge="1">
          <mxGeometry width="50" height="50" relative="1" as="geometry">
            <mxPoint x="366.63" y="119.69999999999999" as="sourcePoint" />
            <mxPoint x="379" y="134" as="targetPoint" />
          </mxGeometry>
        </mxCell>
        <mxCell id="Pijx6tLUIFeuxo3mq-_r-33" value="Q&lt;sub style=&quot;font-size: 16px;&quot;&gt;in&lt;/sub&gt;, T&lt;sub style=&quot;font-size: 16px;&quot;&gt;source,in&lt;/sub&gt;" style="text;html=1;strokeColor=none;fillColor=none;align=center;verticalAlign=middle;whiteSpace=wrap;rounded=0;fontSize=16;" parent="1" vertex="1">
          <mxGeometry x="332.5" y="464" width="139" height="20" as="geometry" />
        </mxCell>
        <mxCell id="Pijx6tLUIFeuxo3mq-_r-34" value="" style="rounded=0;orthogonalLoop=1;jettySize=auto;html=1;strokeWidth=2;fontSize=16;" parent="1" edge="1">
          <mxGeometry relative="1" as="geometry">
            <mxPoint x="394" y="454" as="sourcePoint" />
            <mxPoint x="393.96" y="409" as="targetPoint" />
            <Array as="points">
              <mxPoint x="394" y="444" />
            </Array>
          </mxGeometry>
        </mxCell>
        <mxCell id="Pijx6tLUIFeuxo3mq-_r-38" value="Q&lt;sub style=&quot;&quot;&gt;&lt;font style=&quot;font-size: 16px;&quot;&gt;out&lt;/font&gt;&lt;/sub&gt;, T&lt;span style=&quot;font-size: 16px;&quot;&gt;&lt;sub style=&quot;font-size: 16px;&quot;&gt;sink,out&lt;/sub&gt;&lt;/span&gt;" style="text;html=1;strokeColor=none;fillColor=none;align=center;verticalAlign=middle;whiteSpace=wrap;rounded=0;fontSize=16;" parent="1" vertex="1">
          <mxGeometry x="326.5" y="86" width="140" height="20" as="geometry" />
        </mxCell>
        <mxCell id="Pijx6tLUIFeuxo3mq-_r-39" value="" style="edgeStyle=orthogonalEdgeStyle;rounded=0;orthogonalLoop=1;jettySize=auto;html=1;entryX=0;entryY=0.5;entryDx=0;entryDy=0;entryPerimeter=0;strokeWidth=2;fontSize=16;" parent="1" edge="1">
          <mxGeometry relative="1" as="geometry">
            <mxPoint x="396.38" y="160" as="sourcePoint" />
            <mxPoint x="396.38" y="110" as="targetPoint" />
            <Array as="points">
              <mxPoint x="396.38" y="140" />
              <mxPoint x="396.38" y="140" />
            </Array>
          </mxGeometry>
        </mxCell>
        <mxCell id="Pijx6tLUIFeuxo3mq-_r-42" value="." style="text;html=1;strokeColor=none;fillColor=none;align=center;verticalAlign=middle;whiteSpace=wrap;rounded=0;fontSize=25;rotation=-180;fontFamily=Garamond;" parent="1" vertex="1">
          <mxGeometry x="346" y="459.9999999999999" width="16.67" height="20" as="geometry" />
        </mxCell>
        <mxCell id="Pijx6tLUIFeuxo3mq-_r-43" value="&lt;span style=&quot;font-size: 16px;&quot;&gt;P&lt;sub style=&quot;font-size: 16px;&quot;&gt;el,in&lt;/sub&gt;&lt;/span&gt;" style="text;html=1;strokeColor=none;fillColor=none;align=center;verticalAlign=middle;whiteSpace=wrap;rounded=0;fontSize=16;" parent="1" vertex="1">
          <mxGeometry x="740" y="280" width="40" height="20" as="geometry" />
        </mxCell>
        <mxCell id="Pijx6tLUIFeuxo3mq-_r-44" value="" style="edgeStyle=orthogonalEdgeStyle;rounded=0;orthogonalLoop=1;jettySize=auto;html=1;strokeWidth=2;fontSize=16;" parent="1" edge="1">
          <mxGeometry relative="1" as="geometry">
            <mxPoint x="730" y="289.66" as="sourcePoint" />
            <mxPoint x="670" y="289.66" as="targetPoint" />
            <Array as="points">
              <mxPoint x="720" y="289.66" />
              <mxPoint x="720" y="289.66" />
            </Array>
          </mxGeometry>
        </mxCell>
        <mxCell id="Pijx6tLUIFeuxo3mq-_r-53" value="" style="endArrow=none;html=1;strokeWidth=2;fontSize=16;entryX=0.749;entryY=0.166;entryDx=0;entryDy=0;entryPerimeter=0;strokeColor=#007FFF;" parent="1" edge="1">
          <mxGeometry width="50" height="50" relative="1" as="geometry">
            <mxPoint x="411" y="440" as="sourcePoint" />
            <mxPoint x="411" y="360" as="targetPoint" />
          </mxGeometry>
        </mxCell>
        <mxCell id="Pijx6tLUIFeuxo3mq-_r-54" value="" style="endArrow=none;html=1;strokeWidth=2;fontSize=16;exitX=0.758;exitY=0.835;exitDx=0;exitDy=0;exitPerimeter=0;strokeColor=#FF0000;" parent="1" edge="1">
          <mxGeometry width="50" height="50" relative="1" as="geometry">
            <mxPoint x="414.0000000000001" y="212.20000000000002" as="sourcePoint" />
            <mxPoint x="414" y="131" as="targetPoint" />
          </mxGeometry>
        </mxCell>
        <mxCell id="Pijx6tLUIFeuxo3mq-_r-55" value="" style="endArrow=none;html=1;strokeWidth=2;fontSize=16;entryX=0.26;entryY=0.494;entryDx=0;entryDy=0;entryPerimeter=0;exitX=0.738;exitY=0.177;exitDx=0;exitDy=0;exitPerimeter=0;strokeColor=#FF0000;" parent="1" source="Pijx6tLUIFeuxo3mq-_r-5" target="Pijx6tLUIFeuxo3mq-_r-5" edge="1">
          <mxGeometry width="50" height="50" relative="1" as="geometry">
            <mxPoint x="443.0000000000001" y="188.20000000000005" as="sourcePoint" />
            <mxPoint x="443.0299999999995" y="65.99999999999983" as="targetPoint" />
          </mxGeometry>
        </mxCell>
        <mxCell id="Pijx6tLUIFeuxo3mq-_r-56" value="" style="endArrow=none;html=1;strokeWidth=2;fontSize=16;entryX=0.248;entryY=0.5;entryDx=0;entryDy=0;entryPerimeter=0;strokeColor=#FF6666;" parent="1" target="Pijx6tLUIFeuxo3mq-_r-5" edge="1">
          <mxGeometry width="50" height="50" relative="1" as="geometry">
            <mxPoint x="380" y="211" as="sourcePoint" />
            <mxPoint x="399.59999999999997" y="129" as="targetPoint" />
          </mxGeometry>
        </mxCell>
        <mxCell id="Pijx6tLUIFeuxo3mq-_r-57" value="" style="endArrow=none;html=1;strokeWidth=2;fontSize=16;strokeColor=#007FFF;entryX=0.245;entryY=0.505;entryDx=0;entryDy=0;entryPerimeter=0;" parent="1" target="Pijx6tLUIFeuxo3mq-_r-2" edge="1">
          <mxGeometry width="50" height="50" relative="1" as="geometry">
            <mxPoint x="411" y="360" as="sourcePoint" />
            <mxPoint x="400.6" y="304.2" as="targetPoint" />
          </mxGeometry>
        </mxCell>
        <mxCell id="Pijx6tLUIFeuxo3mq-_r-58" value="" style="endArrow=none;html=1;strokeWidth=2;fontSize=16;entryX=0.255;entryY=0.489;entryDx=0;entryDy=0;entryPerimeter=0;strokeColor=#0000FF;" parent="1" target="Pijx6tLUIFeuxo3mq-_r-2" edge="1">
          <mxGeometry width="50" height="50" relative="1" as="geometry">
            <mxPoint x="377" y="362" as="sourcePoint" />
            <mxPoint x="400" y="302.99999999999994" as="targetPoint" />
          </mxGeometry>
        </mxCell>
        <mxCell id="sApmw0bX65L9BM0iTh7I-1" value="heat source (cold)" style="text;html=1;align=center;verticalAlign=middle;resizable=0;points=[];autosize=1;fontSize=16;" parent="1" vertex="1">
          <mxGeometry x="415" y="410" width="150" height="30" as="geometry" />
        </mxCell>
        <mxCell id="sApmw0bX65L9BM0iTh7I-2" value="heat sink (hot)" style="text;html=1;align=center;verticalAlign=middle;resizable=0;points=[];autosize=1;fontSize=16;" parent="1" vertex="1">
          <mxGeometry x="430" y="130" width="120" height="30" as="geometry" />
        </mxCell>
        <mxCell id="P6DEu6xGaqio7s_U3eFR-2" value="" style="edgeStyle=orthogonalEdgeStyle;rounded=0;orthogonalLoop=1;jettySize=auto;html=1;entryX=0.5;entryY=0;entryDx=0;entryDy=0;entryPerimeter=0;strokeWidth=2;fontColor=#0000FF;strokeColor=#0000FF;fontSize=16;" parent="1" target="Pijx6tLUIFeuxo3mq-_r-2" edge="1">
          <mxGeometry relative="1" as="geometry">
            <mxPoint x="341" y="417.48000000000013" as="targetPoint" />
            <Array as="points">
              <mxPoint x="163" y="374" />
            </Array>
            <mxPoint x="162.61012311901504" y="316.48" as="sourcePoint" />
          </mxGeometry>
        </mxCell>
        <mxCell id="3n3xtM8m6fBBOODQfMO4-2" value="." style="text;html=1;strokeColor=none;fillColor=none;align=center;verticalAlign=middle;whiteSpace=wrap;rounded=0;fontSize=25;rotation=-180;fontFamily=Garamond;" vertex="1" parent="1">
          <mxGeometry x="341.00000000000006" y="81.99999999999989" width="16.67" height="20" as="geometry" />
        </mxCell>
      </root>
    </mxGraphModel>
  </diagram>
</mxfile>
